<svg xmlns="http://www.w3.org/2000/svg" viewBox="-394 196.9 169.1 169.1"><path d="M-271.6 196.9h-75.8c-25.7 0-46.7 20.9-46.7 46.7v75.8c0 25.7 20.9 46.7 46.7 46.7h75.8c25.7 0 46.7-20.9 46.7-46.7v-75.8c0-25.7-21-46.7-46.7-46.7zm31.7 122.4c0 17.5-14.2 31.7-31.7 31.7h-75.8c-17.5 0-31.7-14.2-31.7-31.7v-75.8c0-17.5 14.2-31.7 31.7-31.7h75.8c17.5 0 31.7 14.2 31.7 31.7v75.8z"/><path d="M-309.5 237.9c-24 0-43.6 19.5-43.6 43.6 0 24 19.5 43.6 43.6 43.6s43.6-19.5 43.6-43.6-19.5-43.6-43.6-43.6zm0 72.1c-15.7 0-28.6-12.8-28.6-28.6s12.8-28.6 28.6-28.6 28.6 12.8 28.6 28.6-12.8 28.6-28.6 28.6zM-264.1 225.2c-2.9 0-5.7 1.2-7.8 3.2-2.1 2-3.2 4.9-3.2 7.8 0 2.9 1.2 5.7 3.2 7.8 2 2 4.9 3.2 7.8 3.2 2.9 0 5.7-1.2 7.8-3.2 2.1-2 3.2-4.9 3.2-7.8 0-2.9-1.2-5.7-3.2-7.8-2-2-4.9-3.2-7.8-3.2z"/></svg>