<?xml version="1.0" encoding="utf-8"?>
<!-- Generator: Adobe Illustrator 23.0.1, SVG Export Plug-In . SVG Version: 6.00 Build 0)  -->
<svg version="1.1" id="Layer_1" xmlns="http://www.w3.org/2000/svg" xmlns:xlink="http://www.w3.org/1999/xlink" x="0px" y="0px"
	 viewBox="0 0 1306.79 92.18" style="enable-background:new 0 0 1306.79 92.18;" xml:space="preserve">
<style type="text/css">
	.st0{fill:#E42313;}
</style>
<g>
	<polygon class="st0" points="30.27,0 13.96,36.9 13.96,0 0,0 0,92.17 13.96,92.17 13.96,62.05 20.32,49.33 32.06,92.17 
		46.85,92.17 28.88,32.06 44.77,0 	"/>
	<path class="st0" d="M89.23,22.11l-5.25,36.76h10.78L89.23,22.11z M82.04,71.86l-3.18,20.31H65.18L80.25,0h17.97l16.03,92.17
		h-14.23l-3.18-20.31H82.04z"/>
	<g>
		<path class="st0" d="M155.76,40.91c2.35,0,4.07-0.21,5.15-0.62c1.08-0.41,1.99-1.22,2.71-2.42c0.72-1.11,1.29-2.63,1.69-4.56
			c0.41-1.93,0.61-4.05,0.61-6.36c0-2.58-0.25-4.9-0.75-6.98c-0.5-2.07-1.15-3.62-1.97-4.63c-0.72-0.92-1.63-1.54-2.71-1.87
			c-1.08-0.32-2.66-0.48-4.74-0.48h-4.34v27.92H155.76z M151.42,92.18h-13.96V0h19.35c8.11,0,13.98,2.14,17.62,6.42
			c3.64,4.29,5.46,11.04,5.46,20.25c0,5.99-0.7,10.73-2.1,14.23c-1.4,3.5-3.82,6.49-7.26,8.98l10.74,42.29h-14.79l-8.55-38.55h-6.51
			V92.18z"/>
	</g>
	<polygon class="st0" points="251.19,92.18 251.19,28.47 238.04,92.18 231.87,92.18 218.03,28.47 218.03,92.18 205.03,92.18 
		205.03,0 223.55,0 235.02,56.11 245.53,0 264.18,0 264.18,92.18 	"/>
	<path class="st0" d="M311.86,22.11l-5.25,36.76h10.78L311.86,22.11z M304.67,71.86l-3.18,20.31h-13.68L302.88,0h17.97l16.03,92.17
		h-14.23l-3.18-20.31H304.67z"/>
	<g>
		<path class="st0" d="M378.38,40.91c2.35,0,4.07-0.21,5.15-0.62c1.08-0.41,1.99-1.22,2.71-2.42c0.72-1.11,1.29-2.63,1.69-4.56
			c0.41-1.93,0.61-4.05,0.61-6.36c0-2.58-0.25-4.9-0.75-6.98c-0.5-2.07-1.15-3.62-1.97-4.63c-0.72-0.92-1.63-1.54-2.71-1.87
			c-1.08-0.32-2.66-0.48-4.74-0.48h-4.34v27.92H378.38z M374.05,92.18h-13.96V0h19.35c8.11,0,13.98,2.14,17.62,6.42
			c3.64,4.29,5.46,11.04,5.46,20.25c0,5.99-0.7,10.73-2.1,14.23s-3.82,6.49-7.26,8.98l10.74,42.29h-14.79l-8.55-38.55h-6.51V92.18z"
			/>
	</g>
	<path class="st0" d="M448.58,22.11l-5.25,36.76h10.78L448.58,22.11z M441.39,71.86l-3.18,20.31h-13.68L439.6,0h17.96l16.03,92.17
		h-14.23l-3.18-20.31H441.39z"/>
	<polygon class="st0" points="542.97,92.18 542.97,28.47 529.81,92.18 523.64,92.18 509.8,28.47 509.8,92.18 496.81,92.18 496.81,0 
		515.33,0 526.8,56.11 537.3,0 555.96,0 555.96,92.18 	"/>
	<path class="st0" d="M603.63,22.11l-5.25,36.76h10.78L603.63,22.11z M596.45,71.86l-3.18,20.31h-13.68L594.65,0h17.96l16.03,92.17
		h-14.23l-3.18-20.31H596.45z"/>
</g>
<g>
	<g>
		<path d="M674.63,27.51h10.29c1.72,0,3.35,0.19,4.89,0.59c1.54,0.39,2.88,1.01,4.03,1.88c1.15,0.87,2.06,1.96,2.74,3.3
			c0.67,1.34,1.01,2.96,1.01,4.85v0.2c0,1.93-0.34,3.58-1.01,4.93c-0.68,1.36-1.59,2.47-2.74,3.33c-1.15,0.86-2.49,1.49-4.03,1.88
			c-1.54,0.39-3.17,0.58-4.89,0.58h-5.88v14.71h-4.41V27.51z M685.23,45.51c2.6,0,4.58-0.61,5.93-1.85
			c1.35-1.23,2.03-3.02,2.03-5.35v-0.2c0-2.57-0.71-4.39-2.13-5.45c-1.42-1.06-3.36-1.6-5.83-1.6h-6.19v14.45H685.23z"/>
		<path d="M708.25,64.22c-1.22,0-2.37-0.15-3.45-0.45c-1.08-0.31-2.02-0.78-2.81-1.42c-0.79-0.64-1.42-1.45-1.88-2.43
			c-0.45-0.98-0.68-2.15-0.68-3.5c0-1.52,0.37-2.8,1.12-3.85c0.74-1.05,1.73-1.89,2.97-2.53c1.23-0.64,2.65-1.11,4.26-1.4
			c1.61-0.29,3.25-0.43,4.94-0.43h3.8v-1.91c0-2.11-0.44-3.64-1.32-4.56c-0.88-0.92-2.33-1.39-4.36-1.39
			c-3.65,0-5.68,1.57-6.09,4.71h-4.21c0.13-1.52,0.51-2.8,1.14-3.85c0.63-1.05,1.42-1.9,2.38-2.56c0.96-0.66,2.04-1.13,3.24-1.42
			c1.2-0.29,2.44-0.43,3.73-0.43c1.25,0,2.47,0.14,3.65,0.43c1.18,0.29,2.21,0.79,3.09,1.52c0.88,0.73,1.59,1.7,2.13,2.92
			c0.54,1.22,0.81,2.76,0.81,4.61v17.5h-4.21v-3.35c-0.98,1.25-2.11,2.19-3.4,2.84C711.83,63.9,710.21,64.22,708.25,64.22
			 M708.66,60.88c1.12,0,2.15-0.14,3.12-0.43c0.97-0.29,1.79-0.7,2.49-1.24c0.69-0.54,1.24-1.21,1.65-2.01
			c0.41-0.79,0.61-1.7,0.61-2.71v-3.3h-3.65c-1.32,0-2.55,0.1-3.68,0.28c-1.13,0.19-2.11,0.48-2.94,0.89
			c-0.83,0.4-1.47,0.94-1.93,1.6c-0.46,0.66-0.68,1.48-0.68,2.46c0,1.39,0.37,2.48,1.12,3.27C705.5,60.48,706.8,60.88,708.66,60.88"
			/>
		<path d="M727.06,37.25h4.21v4.77c0.4-0.74,0.87-1.43,1.39-2.05c0.52-0.63,1.12-1.17,1.8-1.63c0.67-0.45,1.47-0.82,2.38-1.09
			c0.91-0.27,1.96-0.42,3.14-0.45v3.96c-1.32,0.07-2.52,0.24-3.6,0.51c-1.08,0.27-2,0.73-2.77,1.37c-0.76,0.64-1.34,1.49-1.75,2.56
			c-0.41,1.07-0.61,2.41-0.61,4.03v14.55h-4.21V37.25z"/>
		<path d="M752.52,64.12c-2.43,0-4.24-0.64-5.4-1.93c-1.16-1.28-1.75-2.98-1.75-5.07V40.8h-3.8v-3.55h3.8v-6.03h4.21v6.03h6.19v3.55
			h-6.19v15.93c0,2.57,1.1,3.85,3.29,3.85c0.68,0,1.27-0.05,1.78-0.15c0.5-0.1,1-0.24,1.47-0.41v3.55c-0.44,0.17-0.93,0.3-1.47,0.41
			C754.11,64.07,753.4,64.12,752.52,64.12"/>
		<path d="M782.44,64.22c-1.89,0-3.64-0.34-5.22-1.01c-1.59-0.68-2.96-1.62-4.11-2.81c-1.15-1.2-2.05-2.63-2.69-4.29
			c-0.64-1.66-0.96-3.45-0.96-5.37v-0.41c0-1.99,0.33-3.82,0.99-5.48c0.66-1.65,1.56-3.08,2.71-4.28c1.15-1.2,2.52-2.13,4.11-2.79
			c1.59-0.66,3.33-0.98,5.22-0.98c1.86,0,3.59,0.32,5.2,0.98c1.6,0.66,2.98,1.58,4.13,2.77c1.15,1.18,2.06,2.6,2.71,4.26
			c0.66,1.66,0.99,3.48,0.99,5.48v0.4c0,2-0.33,3.83-0.99,5.51c-0.66,1.67-1.57,3.1-2.74,4.28c-1.16,1.18-2.54,2.1-4.13,2.76
			C786.07,63.89,784.33,64.22,782.44,64.22 M782.49,60.67c1.32,0,2.52-0.24,3.6-0.71c1.08-0.47,2-1.14,2.74-2.02
			c0.74-0.88,1.32-1.93,1.72-3.15c0.41-1.23,0.61-2.58,0.61-4.06v-0.36c0-1.52-0.2-2.89-0.61-4.14c-0.41-1.24-0.99-2.3-1.75-3.18
			c-0.76-0.87-1.67-1.55-2.74-2.02c-1.06-0.47-2.26-0.71-3.58-0.71c-1.32,0-2.52,0.24-3.6,0.71c-1.08,0.47-1.99,1.14-2.74,2.02
			c-0.74,0.87-1.32,1.93-1.72,3.15c-0.41,1.23-0.61,2.6-0.61,4.11v0.41c0,3.03,0.77,5.44,2.31,7.24
			C777.66,59.77,779.78,60.67,782.49,60.67"/>
		<path d="M801.05,40.79h-3.8v-3.55h3.8v-4.31c0-2.71,0.66-4.8,1.98-6.29c1.32-1.49,3.29-2.23,5.93-2.23c0.68,0,1.24,0.05,1.68,0.13
			c0.44,0.08,0.93,0.21,1.47,0.38v3.59c-0.37-0.17-0.82-0.31-1.34-0.41c-0.53-0.1-1.08-0.15-1.65-0.15c-1.39,0-2.37,0.42-2.97,1.26
			c-0.59,0.84-0.89,1.94-0.89,3.28v4.74h6.49v3.55h-6.49v22.97h-4.21V40.79z"/>
		<path d="M835.38,27.51h10.7l11.76,36.26h-8.57l-2.49-8.06h-13.14l-2.48,8.06h-7.71L835.38,27.51z M835.43,49.87h9.59l-4.77-15.67
			L835.43,49.87z"/>
		<path d="M871.48,64.33c-1.93,0-3.73-0.3-5.4-0.89c-1.68-0.59-3.12-1.46-4.34-2.61c-1.22-1.15-2.17-2.56-2.86-4.24
			c-0.69-1.67-1.04-3.59-1.04-5.76v-0.4c0-2.13,0.36-4.05,1.07-5.76c0.71-1.7,1.69-3.17,2.94-4.39c1.25-1.18,2.7-2.08,4.36-2.71
			c1.66-0.62,3.43-0.94,5.33-0.94c1.52,0,3,0.18,4.44,0.53c1.44,0.36,2.73,0.94,3.88,1.75c1.11,0.81,2.04,1.88,2.79,3.19
			c0.74,1.32,1.2,2.92,1.37,4.82h-6.95c-0.24-1.52-0.81-2.65-1.7-3.4c-0.9-0.74-2.12-1.11-3.67-1.11c-1.93,0-3.47,0.68-4.62,2.05
			c-1.15,1.36-1.72,3.31-1.72,5.84v0.41c0,2.66,0.57,4.67,1.7,6.01c1.13,1.35,2.73,2.02,4.79,2.02c1.49,0,2.76-0.42,3.83-1.26
			c1.06-0.84,1.68-2.11,1.85-3.82h6.64c-0.1,1.59-0.46,3.04-1.07,4.34c-0.61,1.3-1.45,2.41-2.53,3.32c-1.08,0.95-2.38,1.69-3.9,2.2
			C875.14,64.06,873.41,64.33,871.48,64.33"/>
		<path d="M898.87,64.33c-1.93,0-3.73-0.3-5.4-0.89c-1.68-0.59-3.12-1.46-4.34-2.61c-1.22-1.15-2.17-2.56-2.86-4.24
			c-0.69-1.67-1.04-3.59-1.04-5.76v-0.4c0-2.13,0.36-4.05,1.06-5.76c0.71-1.7,1.69-3.17,2.94-4.39c1.25-1.18,2.7-2.08,4.36-2.71
			c1.66-0.62,3.43-0.94,5.33-0.94c1.52,0,3,0.18,4.44,0.53c1.44,0.36,2.73,0.94,3.88,1.75c1.11,0.81,2.04,1.88,2.79,3.19
			c0.74,1.32,1.2,2.92,1.37,4.82h-6.95c-0.23-1.52-0.8-2.65-1.7-3.4c-0.9-0.74-2.12-1.11-3.67-1.11c-1.93,0-3.47,0.68-4.62,2.05
			c-1.15,1.36-1.72,3.31-1.72,5.84v0.41c0,2.66,0.57,4.67,1.7,6.01c1.14,1.35,2.73,2.02,4.79,2.02c1.49,0,2.77-0.42,3.83-1.26
			c1.06-0.84,1.68-2.11,1.85-3.82h6.64c-0.1,1.59-0.45,3.04-1.06,4.34c-0.61,1.3-1.45,2.41-2.53,3.32c-1.08,0.95-2.38,1.69-3.9,2.2
			C902.52,64.06,900.8,64.33,898.87,64.33"/>
		<path d="M926.46,64.33c-2,0-3.84-0.31-5.53-0.91c-1.69-0.61-3.15-1.51-4.36-2.69c-1.25-1.15-2.22-2.55-2.92-4.2
			c-0.69-1.66-1.04-3.55-1.04-5.68v-0.4c0-2.1,0.35-3.99,1.04-5.68c0.69-1.69,1.66-3.14,2.92-4.36c1.22-1.18,2.65-2.1,4.31-2.76
			c1.65-0.66,3.45-0.99,5.37-0.99c1.73,0,3.36,0.26,4.92,0.79c1.56,0.52,2.92,1.33,4.11,2.41c1.18,1.08,2.13,2.48,2.84,4.18
			c0.71,1.7,1.06,3.74,1.06,6.11v2.03h-19.12c0.1,2.23,0.72,3.95,1.85,5.15c1.13,1.2,2.71,1.8,4.74,1.8c1.72,0,3.02-0.34,3.88-1.01
			c0.86-0.67,1.41-1.57,1.64-2.69h6.95c-0.44,2.88-1.75,5.08-3.93,6.62C933.02,63.56,930.11,64.33,926.46,64.33 M932.03,47.64
			c-0.14-2.03-0.69-3.53-1.67-4.49c-0.98-0.97-2.35-1.45-4.11-1.45c-1.65,0-3.02,0.52-4.08,1.55c-1.07,1.03-1.74,2.49-2,4.39H932.03
			z"/>
		<path d="M942.07,37.25h7.36v4.21c0.67-1.32,1.72-2.45,3.14-3.4c1.42-0.95,3.24-1.42,5.48-1.42c1.32,0,2.52,0.2,3.6,0.61
			c1.08,0.4,2.03,1.02,2.84,1.83c0.78,0.85,1.39,1.92,1.83,3.22c0.44,1.3,0.66,2.83,0.66,4.59v16.89h-7.35V47.95
			c0-1.82-0.37-3.17-1.12-4.03c-0.74-0.86-1.92-1.29-3.55-1.29c-1.59,0-2.91,0.48-3.96,1.45c-1.05,0.96-1.57,2.43-1.57,4.39v15.31
			h-7.36V37.25z"/>
		<path d="M981.02,64.28c-2.81,0-4.94-0.7-6.39-2.1c-1.45-1.4-2.18-3.49-2.18-6.27V42.47h-3.4v-5.23h3.4v-5.73h7.3v5.73h5.58v5.23
			h-5.58v12.78c0,1.05,0.24,1.83,0.73,2.36c0.49,0.52,1.23,0.78,2.21,0.78c0.54,0,1.04-0.04,1.49-0.12
			c0.46-0.09,0.89-0.22,1.29-0.38v5.68c-0.51,0.17-1.13,0.32-1.88,0.48C982.87,64.2,982.01,64.28,981.02,64.28"/>
		<path d="M997.35,64.33c-1.28,0-2.48-0.19-3.57-0.58c-1.1-0.39-2.06-0.99-2.86-1.8c-0.81-0.81-1.45-1.85-1.9-3.12
			c-0.46-1.27-0.68-2.76-0.68-4.49V37.25h7.3v16.07c0,1.76,0.39,3.09,1.17,3.98c0.78,0.9,1.93,1.34,3.45,1.34
			c1.55,0,2.86-0.48,3.93-1.45c1.06-0.96,1.6-2.42,1.6-4.38V37.25h7.3v26.52h-7.3v-4.16c-0.68,1.35-1.7,2.48-3.07,3.37
			C1001.33,63.88,999.55,64.33,997.35,64.33"/>
		<path d="M1017.63,37.25h7.36v5.07c0.85-1.79,1.94-3.14,3.3-4.06c1.35-0.91,3.11-1.39,5.27-1.42v6.85
			c-2.74-0.03-4.85,0.45-6.34,1.47c-1.49,1.02-2.23,2.79-2.23,5.33v13.29h-7.36V37.25z"/>
		<path d="M1048.16,64.33c-2,0-3.84-0.31-5.53-0.91c-1.69-0.61-3.14-1.51-4.36-2.69c-1.25-1.15-2.22-2.55-2.92-4.2
			c-0.69-1.66-1.04-3.55-1.04-5.68v-0.4c0-2.1,0.35-3.99,1.04-5.68c0.69-1.69,1.66-3.14,2.92-4.36c1.22-1.18,2.65-2.1,4.31-2.76
			c1.66-0.66,3.45-0.99,5.37-0.99c1.73,0,3.36,0.26,4.92,0.79c1.56,0.52,2.92,1.33,4.11,2.41c1.18,1.08,2.13,2.48,2.84,4.18
			c0.71,1.7,1.07,3.74,1.07,6.11v2.03h-19.12c0.1,2.23,0.72,3.95,1.85,5.15c1.13,1.2,2.71,1.8,4.74,1.8c1.73,0,3.02-0.34,3.88-1.01
			c0.86-0.67,1.41-1.57,1.65-2.69h6.95c-0.44,2.88-1.75,5.08-3.93,6.62C1054.73,63.56,1051.81,64.33,1048.16,64.33 M1053.74,47.64
			c-0.14-2.03-0.69-3.53-1.67-4.49c-0.98-0.97-2.35-1.45-4.11-1.45c-1.65,0-3.02,0.52-4.08,1.55c-1.07,1.03-1.73,2.49-2,4.39
			H1053.74z"/>
		<path d="M1087.82,37.25h4.21v4.21c0.61-1.25,1.63-2.34,3.07-3.27c1.44-0.93,3.26-1.39,5.45-1.39c1.35,0,2.61,0.19,3.76,0.58
			c1.15,0.39,2.14,1.02,2.96,1.88c0.83,0.86,1.47,1.97,1.93,3.32c0.46,1.35,0.68,2.99,0.68,4.92v16.28h-4.21V47.11
			c0-2.34-0.51-4.06-1.52-5.14c-1.02-1.09-2.59-1.63-4.72-1.63c-0.98,0-1.92,0.15-2.81,0.46c-0.9,0.31-1.68,0.76-2.36,1.37
			c-0.67,0.61-1.21,1.38-1.62,2.29c-0.41,0.92-0.61,1.97-0.61,3.16v16.14h-4.21V37.25z"/>
		<path d="M1124.28,64.12c-2.43,0-4.24-0.64-5.4-1.93c-1.17-1.28-1.75-2.98-1.75-5.07V40.8h-3.8v-3.55h3.8v-6.03h4.21v6.03h6.19
			v3.55h-6.19v15.93c0,2.57,1.1,3.85,3.3,3.85c0.68,0,1.27-0.05,1.78-0.15c0.51-0.1,0.99-0.24,1.47-0.41v3.55
			c-0.44,0.17-0.93,0.3-1.47,0.41C1125.87,64.07,1125.16,64.12,1124.28,64.12"/>
		<path d="M1143.15,64.22c-1.89,0-3.62-0.32-5.17-0.96c-1.56-0.64-2.91-1.55-4.06-2.71c-1.15-1.16-2.03-2.58-2.66-4.24
			c-0.63-1.65-0.94-3.49-0.94-5.53v-0.4c0-2,0.3-3.83,0.91-5.51c0.61-1.67,1.46-3.11,2.56-4.31c1.1-1.2,2.41-2.13,3.93-2.79
			c1.52-0.66,3.19-0.99,5.02-0.99c1.52,0,3,0.24,4.44,0.74c1.44,0.49,2.72,1.27,3.83,2.32c1.12,1.06,2.01,2.43,2.66,4.11
			c0.66,1.68,0.99,3.72,0.99,6.1v1.38h-19.98c0.1,2.99,0.86,5.28,2.28,6.86c1.42,1.58,3.5,2.37,6.24,2.37c4.16,0,6.51-1.5,7.05-4.51
			h4.21c-0.48,2.66-1.72,4.66-3.76,6.02C1148.67,63.55,1146.16,64.22,1143.15,64.22 M1150.34,47.95c-0.2-2.72-0.97-4.67-2.31-5.84
			c-1.34-1.17-3.1-1.76-5.3-1.76c-2.16,0-3.93,0.68-5.3,2.04c-1.37,1.36-2.24,3.22-2.61,5.57H1150.34z"/>
		<path d="M1159.17,37.25h4.21v4.77c0.4-0.74,0.87-1.43,1.39-2.05c0.53-0.63,1.12-1.17,1.8-1.63c0.68-0.45,1.47-0.82,2.38-1.09
			c0.91-0.27,1.96-0.42,3.14-0.45v3.96c-1.32,0.07-2.52,0.24-3.6,0.51c-1.08,0.27-2,0.73-2.77,1.37c-0.76,0.64-1.34,1.49-1.75,2.56
			c-0.4,1.07-0.61,2.41-0.61,4.03v14.55h-4.21V37.25z"/>
		<path d="M1182.7,64.22c-1.22,0-2.37-0.15-3.45-0.45c-1.08-0.31-2.02-0.78-2.81-1.42c-0.79-0.64-1.42-1.45-1.88-2.43
			c-0.45-0.98-0.68-2.15-0.68-3.5c0-1.52,0.37-2.8,1.12-3.85c0.74-1.05,1.73-1.89,2.97-2.53c1.23-0.64,2.65-1.11,4.26-1.4
			c1.6-0.29,3.25-0.43,4.94-0.43h3.81v-1.91c0-2.11-0.44-3.64-1.32-4.56c-0.88-0.92-2.33-1.39-4.36-1.39
			c-3.65,0-5.68,1.57-6.08,4.71h-4.21c0.13-1.52,0.51-2.8,1.14-3.85c0.63-1.05,1.42-1.9,2.38-2.56c0.96-0.66,2.04-1.13,3.24-1.42
			c1.2-0.29,2.44-0.43,3.73-0.43c1.25,0,2.47,0.14,3.65,0.43c1.18,0.29,2.22,0.79,3.1,1.52c0.88,0.73,1.59,1.7,2.13,2.92
			c0.54,1.22,0.81,2.76,0.81,4.61v17.5h-4.2v-3.35c-0.98,1.25-2.11,2.19-3.4,2.84C1186.28,63.9,1184.66,64.22,1182.7,64.22
			 M1183.1,60.88c1.11,0,2.15-0.14,3.12-0.43c0.96-0.29,1.79-0.7,2.49-1.24c0.69-0.54,1.24-1.21,1.65-2.01
			c0.4-0.79,0.61-1.7,0.61-2.71v-3.3h-3.65c-1.32,0-2.55,0.1-3.68,0.28c-1.14,0.19-2.11,0.48-2.94,0.89
			c-0.83,0.4-1.47,0.94-1.93,1.6c-0.45,0.66-0.68,1.48-0.68,2.46c0,1.39,0.37,2.48,1.12,3.27
			C1179.94,60.48,1181.24,60.88,1183.1,60.88"/>
		<path d="M1212.52,64.22c-1.86,0-3.57-0.31-5.15-0.94c-1.57-0.62-2.94-1.52-4.11-2.69c-1.17-1.17-2.08-2.58-2.74-4.23
			c-0.66-1.66-0.99-3.52-0.99-5.58v-0.4c0-2.03,0.33-3.88,1.01-5.55c0.68-1.67,1.6-3.1,2.76-4.28c1.17-1.18,2.53-2.11,4.08-2.77
			c1.56-0.66,3.23-0.98,5.02-0.98c1.39,0,2.73,0.17,4.03,0.5c1.3,0.34,2.47,0.87,3.5,1.6c1.03,0.73,1.9,1.68,2.61,2.87
			c0.71,1.18,1.17,2.62,1.37,4.31h-4.16c-0.34-2.07-1.19-3.55-2.56-4.42c-1.37-0.87-2.97-1.3-4.79-1.3c-1.21,0-2.34,0.24-3.37,0.71
			c-1.03,0.47-1.93,1.13-2.69,1.99c-0.76,0.86-1.36,1.91-1.8,3.15c-0.44,1.25-0.66,2.64-0.66,4.19v0.4c0,3.26,0.8,5.72,2.41,7.39
			c1.6,1.67,3.69,2.5,6.26,2.5c0.95,0,1.85-0.13,2.71-0.4c0.86-0.27,1.64-0.67,2.33-1.21c0.69-0.54,1.27-1.21,1.72-2.01
			c0.46-0.8,0.73-1.74,0.84-2.81h3.9c-0.13,1.42-0.51,2.74-1.14,3.98c-0.63,1.23-1.45,2.29-2.46,3.17c-1.02,0.88-2.2,1.57-3.55,2.08
			C1215.58,63.97,1214.11,64.22,1212.52,64.22"/>
		<path d="M1236.56,64.12c-2.43,0-4.23-0.64-5.4-1.93c-1.17-1.28-1.75-2.98-1.75-5.07V40.8h-3.8v-3.55h3.8v-6.03h4.21v6.03h6.19
			v3.55h-6.19v15.93c0,2.57,1.1,3.85,3.3,3.85c0.68,0,1.27-0.05,1.77-0.15c0.51-0.1,0.99-0.24,1.47-0.41v3.55
			c-0.44,0.17-0.93,0.3-1.47,0.41C1238.15,64.07,1237.43,64.12,1236.56,64.12"/>
		<path d="M1246.7,31.72c-0.78,0-1.44-0.27-1.98-0.81c-0.54-0.54-0.81-1.2-0.81-1.98c0-0.78,0.27-1.44,0.81-1.98
			c0.54-0.54,1.2-0.81,1.98-0.81c0.78,0,1.44,0.27,1.98,0.81c0.54,0.54,0.81,1.2,0.81,1.98c0,0.78-0.27,1.44-0.81,1.98
			C1248.13,31.45,1247.47,31.72,1246.7,31.72 M1244.66,37.25h4.21v26.52h-4.21V37.25z"/>
		<polygon points="1252.58,37.25 1257.15,37.25 1265,59.51 1272.76,37.25 1277.12,37.25 1267.59,63.77 1262.22,63.77 		"/>
		<path d="M1290.81,64.22c-1.89,0-3.62-0.32-5.17-0.96c-1.56-0.64-2.91-1.55-4.06-2.71c-1.15-1.16-2.03-2.58-2.66-4.24
			c-0.63-1.65-0.94-3.49-0.94-5.53v-0.4c0-2,0.3-3.83,0.91-5.51c0.61-1.67,1.46-3.11,2.56-4.31c1.1-1.2,2.41-2.13,3.93-2.79
			c1.52-0.66,3.19-0.99,5.02-0.99c1.52,0,3,0.24,4.44,0.74c1.44,0.49,2.72,1.27,3.83,2.32c1.12,1.06,2.01,2.43,2.66,4.11
			c0.66,1.68,0.99,3.72,0.99,6.1v1.38h-19.98c0.1,2.99,0.86,5.28,2.28,6.86c1.42,1.58,3.5,2.37,6.24,2.37c4.16,0,6.51-1.5,7.05-4.51
			h4.21c-0.47,2.66-1.72,4.66-3.76,6.02C1296.34,63.55,1293.82,64.22,1290.81,64.22 M1298.01,47.95c-0.2-2.72-0.97-4.67-2.31-5.84
			c-1.33-1.17-3.1-1.76-5.3-1.76c-2.16,0-3.93,0.68-5.3,2.04c-1.37,1.36-2.24,3.22-2.61,5.57H1298.01z"/>
	</g>
	<g>
		<rect x="1076.13" y="26.86" width="3.5" height="36.87"/>
	</g>
	<g>
		<rect x="1076.12" y="26.86" width="4.14" height="36.87"/>
	</g>
</g>
</svg>
