<svg id="logo--mofilm-large" xmlns="http://www.w3.org/2000/svg" width="530" height="111.669" viewBox="0 0 530 111.669">
  <path id="Path_3" data-name="Path 3" d="M72.1,80.063H91.757c8.686,23.19,17.33,46.3,26.224,70.027,1.122-2.951,2.036-5.278,2.909-7.647q11.283-30.172,22.566-60.427a2.714,2.714,0,0,1,3.117-2.12c5.735.125,11.47.042,17.372.042V185.415H147.363V115.887c-.166-.042-.332-.042-.5-.083-1.205,3.117-2.369,6.234-3.574,9.351-6.192,16.291-12.426,32.582-18.577,48.873a2.468,2.468,0,0,1-2.826,1.953c-2.618-.125-5.278-.125-7.9,0-1.538.083-2.12-.54-2.66-1.912q-10.722-28.3-21.527-56.6a3.711,3.711,0,0,0-1.039-1.621v69.528H72.1Z" transform="translate(-72.1 -76.988)"/>
  <path id="Path_4" data-name="Path 4" d="M1143.34,115.97V185.5H1126.8V80.063c.665-.042,1.33-.083,1.953-.083,5.195,0,10.39.083,15.584-.042a2.5,2.5,0,0,1,2.826,1.953q12.218,32.915,24.6,65.829c.249.623.5,1.247.873,2.161a14.761,14.761,0,0,0,.706-1.579q12.467-33.164,24.852-66.411c.54-1.455,1.164-2.036,2.743-1.995,5.818.125,11.6.042,17.538.042V185.457h-16.416V115.679a1.284,1.284,0,0,0-.332-.083c-.291.623-.623,1.247-.873,1.912-7.107,18.66-14.255,37.32-21.278,56.021-.665,1.829-1.5,2.618-3.491,2.452a56.173,56.173,0,0,0-7.481,0,2.192,2.192,0,0,1-2.535-1.745q-10.66-28.115-21.361-56.229c-.291-.748-.623-1.455-.914-2.161A1.261,1.261,0,0,1,1143.34,115.97Z" transform="translate(-688.479 -76.988)"/>
  <path id="Path_5" data-name="Path 5" d="M334.1,128.589A55.731,55.731,0,0,1,390.329,72.9c30.8,0,56.1,25.392,55.814,55.938a56.022,56.022,0,0,1-112.043-.249Zm15.127,0a40.853,40.853,0,1,0,41.06-40.645C367.6,87.986,349.227,106.147,349.227,128.589Z" transform="translate(-225.216 -72.9)"/>
  <path id="Path_6" data-name="Path 6" d="M664.207,123.289h37.985v15.626H664.124v46.878H647.5V80.4h64.042V95.985H664.248C664.207,105.086,664.207,114.021,664.207,123.289Z" transform="translate(-408.37 -77.283)"/>
  <path id="Path_7" data-name="Path 7" d="M952,170.267h45.548v15.626H935.5V80.5H952Z" transform="translate(-576.681 -77.341)"/>
  <path id="Path_8" data-name="Path 8" d="M843.1,80.3h16.457V185.735H843.1Z" transform="translate(-522.681 -77.225)"/>
</svg>
